# xmcd
# 
# Track frame offsets:
#     150
#     10831
#     20983
#     32754
#     46072
#     61433
#     73768
#     85457
#     97665
#     110260
# 
# Disc length: 1640
# 
# Revision: 2
# Processed by: cddbd v1.5.2PL0 Copyright (c) Steve Scherf et al.
# Submitted via: BonkEnc v1.0.8
# 
DISCID=7b06660a
DTITLE=Various Artist - Nothin' But The Blues [CD2]
DYEAR=0
DGENRE=Blues
TTITLE0=Lightnin' Hopkins - Short Haired Woman
TTITLE1=Robert Johnson - Stop Breakin' Down Blues
TTITLE2=T. Bone Walker - Sail on Boogie
TTITLE3=Muddy Waters - Rollin' and Tumblin'
TTITLE4=Bessie Smith - Down Hearted Blues
TTITLE5=Memphis Minnie - Me And my Chauffeur Blues
TTITLE6=Muddy Waters - You're Gonna Miss Me
TTITLE7=Johnny Lee Hooker - War is Over (Goodbye California)
TTITLE8=Billie Holiday - Am I Blue
TTITLE9=Mississippi John Hurt - Big Leg Blues
EXTD=
EXTT0=
EXTT1=
EXTT2=
EXTT3=
EXTT4=
EXTT5=
EXTT6=
EXTT7=
EXTT8=
EXTT9=
PLAYORDER=
